<svg width="70" height="79" viewBox="0 0 70 79" fill="none" xmlns="http://www.w3.org/2000/svg">
<path d="M27.82 8.7615C27.82 13.4407 23.6453 17.273 18.445 17.273C13.2447 17.273 9.07001 13.4407 9.07001 8.7615C9.07001 4.08232 13.2447 0.25 18.445 0.25C23.6453 0.25 27.82 4.08232 27.82 8.7615Z" fill="#CEB0FA" stroke="#513AC0" stroke-width="0.5"/>
<rect x="0.25" y="20.6935" width="38" height="40.387" rx="3.75" fill="#CEB0FA" stroke="#513AC0" stroke-width="0.5"/>
<path d="M42.59 17.64C42.59 22.3909 39.018 26.21 34.65 26.21C30.282 26.21 26.71 22.3909 26.71 17.64C26.71 12.8891 30.282 9.07 34.65 9.07C39.018 9.07 42.59 12.8891 42.59 17.64Z" fill="#81A9F7" stroke="#5E5FD1" stroke-width="0.5"/>
<rect x="16.63" y="30.7735" width="38" height="40.387" rx="3.75" fill="#81A9F7" stroke="#5E5FD1" stroke-width="0.5"/>
<path d="M61.21 26.4015C61.21 31.1045 57.4336 34.913 52.78 34.913C48.1264 34.913 44.35 31.1045 44.35 26.4015C44.35 21.6985 48.1264 17.89 52.78 17.89C57.4336 17.89 61.21 21.6985 61.21 26.4015Z" fill="#F7CBC0" stroke="#936FB7" stroke-width="0.5"/>
<rect x="35.53" y="38.3335" width="34.22" height="40.387" rx="3.75" fill="#F7CBC0" stroke="#936FB7" stroke-width="0.5"/>
</svg>
